<svg width="100" height="100" viewBox="0 0 48 48" fill="none" xmlns="http://www.w3.org/2000/svg">
  <path fill="#38BDF8" d="M24 6C17.333 6 13.333 9.333 12 16C14 12.667 16.667 11.333 20 12C21.933 12.483 23.367 13.933 24.633 15.267C26.7 17.4 28.967 19.667 34 19.667C40.667 19.667 44.667 16.333 46 10C44 13.333 41.333 14.667 38 14C36.067 13.517 34.633 12.067 33.367 10.733C31.3 8.6 29.033 6.333 24 6Z"/>
  <path fill="#38BDF8" d="M12 26C5.333 26 1.333 29.333 0 36C2 32.667 4.667 31.333 8 32C9.933 32.483 11.367 33.933 12.633 35.267C14.7 37.4 16.967 39.667 22 39.667C28.667 39.667 32.667 36.333 34 30C32 33.333 29.333 34.667 26 34C24.067 33.517 22.633 32.067 21.367 30.733C19.3 28.6 17.033 26.333 12 26Z"/>
</svg>
